Coordinates
version=1
nRows=5
nColumns=40
inDegrees=yes

Units are S.I. units (second, meters, Newtons, ...)
Angles are in degrees.

endheader
time	pelvis_tilt	pelvis_list	pelvis_rotation	pelvis_tx	pelvis_ty	pelvis_tz	hip_flexion_r	hip_adduction_r	hip_rotation_r	knee_angle_r	knee_angle_r_beta	ankle_angle_r	subtalar_angle_r	mtp_angle_r	hip_flexion_l	hip_adduction_l	hip_rotation_l	knee_angle_l	knee_angle_l_beta	ankle_angle_l	subtalar_angle_l	mtp_angle_l	lumbar_extension	lumbar_bending	lumbar_rotation	arm_flex_r	arm_add_r	arm_rot_r	elbow_flex_r	pro_sup_r	wrist_flex_r	wrist_dev_r	arm_flex_l	arm_add_l	arm_rot_l	elbow_flex_l	pro_sup_l	wrist_flex_l	wrist_dev_l
     22.08500000	     -5.78683840	     -4.52206947	     10.87583896	      0.93230706	      0.91701272	      0.50830510	      1.30676935	      4.15415670	    -18.49063195	     19.06875715	     19.06875715	     18.88740426	     -4.28055461	     -2.88533353	     28.58216230	     -4.34932471	      6.07092934	     27.92808614	     27.92808614	      7.94370663	    -13.38634165	      6.16789559	     -8.72653653	      1.32443747	      5.38569836	     44.94613294	    -16.91431194	     -5.60302894	     97.41839985	     43.94359531	      0.00000000	      0.00000000	     -7.21223164	     -7.59308833	     -7.37564102	     43.47439545	     46.60733094	      0.00000000	      0.00000000
     22.10428571	     -5.95016225	     -4.53239755	     10.50594094	      0.93292874	      0.91794785	      0.50505279	      1.08150997	      3.83479042	    -18.44222707	     19.19389330	     19.19389330	     18.52130646	     -3.73181752	     -3.12517526	     28.13835852	     -4.30588737	      5.78547688	     27.81875266	     27.81875266	      8.31288862	    -13.53617389	      6.24917068	     -8.59331117	      1.34831046	      5.72738346	     44.56144752	    -17.03418916	     -5.67893003	     95.57001438	     44.01726655	      0.00000000	      0.00000000	     -6.32432664	     -7.62768520	     -7.42065594	     44.64450311	     46.62714064	      0.00000000	      0.00000000
     22.12357143	     -6.13134979	     -4.53527998	     10.17732485	      0.93345347	      0.91877407	      0.50162969	      0.85506519	      3.45314751	    -18.67893244	     19.26101764	     19.26101764	     17.82574153	     -3.00424106	     -4.47225447	     27.76005255	     -4.21794379	      5.51181820	     27.79216408	     27.79216408	      8.87381134	    -13.61607496	      6.74201301	     -8.41641617	      1.39009664	      4.91431574	     45.27155751	    -15.87200938	     -5.34333032	     91.28040031	     44.20707908	      0.00000000	      0.00000000	     -6.63278916	     -8.09925358	     -7.33971498	     47.47061897	     46.62517902	      0.00000000	      0.00000000
     22.14285714	     -6.26554664	     -4.53383833	      9.77759218	      0.93405523	      0.91973787	      0.49822809	      0.59519901	      3.13699401	    -18.50560236	     19.34219043	     19.34219043	     17.38759410	     -2.64509573	     -4.73062206	     27.24873367	     -4.17881596	      5.10958625	     27.62709659	     27.62709659	      9.22987305	    -13.69996885	      6.78235588	     -8.33435964	      1.45542751	      5.35898915	     44.59531751	    -16.38677390	     -5.36111712	     89.33447197	     44.28129792	      0.00000000	      0.00000000	     -5.60456715	     -8.27484208	     -7.48963864	     48.49178725	     46.65692204	      0.00000000	      0.00000000
     22.16214286	     -6.39743557	     -4.55269421	      9.40432913	      0.93460775	      0.92053763	      0.49470435	      0.30784230	      2.79056238	    -18.57410525	     19.34993364	     19.34993364	     16.62291219	     -2.01314243	     -6.21232910	     26.82342047	     -4.11788309	      4.79992305	     27.61813996	     27.61813996	      9.73277545	    -13.80050701	      7.07942858	     -8.17856763	      1.60286102	      4.78586724	     44.88173773	    -15.60822593	     -5.09583494	     85.08390115	     44.46029137	      0.00000000	      0.00000000	     -5.44088937	     -8.77580557	     -7.44584770	     50.22333158	     46.66350637	      0.00000000	      0.00000000
